<?xml version="1.0" encoding="UTF-8"?>
<svg xmlns="http://www.w3.org/2000/svg" xmlns:xlink="http://www.w3.org/1999/xlink" width="128pt" height="128pt" viewBox="0 0 220 214" version="1.1">
<g id="surface13569">
<path style="fill:none;stroke-width:0.4;stroke-linecap:butt;stroke-linejoin:round;stroke:rgb(0%,0%,0%);stroke-opacity:1;stroke-miterlimit:10;" d="M 204.933594 767.785156 L 260.84375 767.785156 " transform="matrix(1,0,0,-1,-76,769)"/>
<path style="fill:none;stroke-width:0.4;stroke-linecap:butt;stroke-linejoin:round;stroke:rgb(0%,0%,0%);stroke-opacity:1;stroke-miterlimit:10;" d="M 171.160156 716.851562 L 204.703125 767.941406 " transform="matrix(1,0,0,-1,-76,769)"/>
<path style="fill:none;stroke-width:0.4;stroke-linecap:butt;stroke-linejoin:round;stroke:rgb(0%,0%,0%);stroke-opacity:1;stroke-miterlimit:10;" d="M 204.882812 666.15625 L 171.253906 717.179688 " transform="matrix(1,0,0,-1,-76,769)"/>
<path style="fill:none;stroke-width:0.4;stroke-linecap:butt;stroke-linejoin:round;stroke:rgb(0%,0%,0%);stroke-opacity:1;stroke-miterlimit:10;" d="M 260.824219 665.972656 L 204.914062 665.855469 " transform="matrix(1,0,0,-1,-76,769)"/>
<path style="fill:none;stroke-width:0.4;stroke-linecap:butt;stroke-linejoin:round;stroke:rgb(0%,0%,0%);stroke-opacity:1;stroke-miterlimit:10;" d="M 260.769531 665.667969 L 294.316406 716.761719 " transform="matrix(1,0,0,-1,-76,769)"/>
<path style="fill:none;stroke-width:0.4;stroke-linecap:butt;stroke-linejoin:round;stroke:rgb(0%,0%,0%);stroke-opacity:1;stroke-miterlimit:10;" d="M 294.308594 716.699219 L 260.679688 767.722656 " transform="matrix(1,0,0,-1,-76,769)"/>
<path style="fill-rule:evenodd;fill:rgb(22%,59.6%,14.9%);fill-opacity:0.75;stroke-width:0.4;stroke-linecap:butt;stroke-linejoin:round;stroke:rgb(0%,0%,0%);stroke-opacity:1;stroke-miterlimit:10;" d="M 204.949219 767.199219 L 261.152344 767.625 L 294.488281 716.335938 L 261.152344 665.90625 L 205.375 665.90625 L 171.609375 716.765625 L 204.304688 766.984375 Z M 204.949219 767.199219 " transform="matrix(1,0,0,-1,-76,769)"/>
<path style="fill-rule:evenodd;fill:rgb(79.6%,23.5%,20%);fill-opacity:0.75;stroke-width:0.4;stroke-linecap:butt;stroke-linejoin:round;stroke:rgb(0%,0%,0%);stroke-opacity:1;stroke-miterlimit:10;" d="M 110.277344 712.0625 L 166.480469 712.492188 L 199.820312 661.203125 L 166.480469 610.769531 L 110.707031 610.769531 L 76.941406 661.628906 L 109.636719 711.851562 Z M 110.277344 712.0625 " transform="matrix(1,0,0,-1,-76,769)"/>
<path style="fill-rule:evenodd;fill:rgb(58.4%,34.5%,69.8%);fill-opacity:0.75;stroke-width:0.4;stroke-linecap:butt;stroke-linejoin:round;stroke:rgb(0%,0%,0%);stroke-opacity:1;stroke-miterlimit:10;" d="M 206.871094 656.289062 L 263.074219 656.714844 L 296.410156 605.425781 L 263.074219 554.992188 L 207.296875 554.992188 L 173.53125 605.855469 L 206.230469 656.074219 Z M 206.871094 656.289062 " transform="matrix(1,0,0,-1,-76,769)"/>
</g>
</svg>
